<svg version="1.2" xmlns="http://www.w3.org/2000/svg" viewBox="0 0 1500 1000" width="1500" height="1000">
	<title>5802647-ai</title>
	<style>
		tspan { white-space:pre } 
		.s0 { fill: #f5f5f5 } 
		.s1 { fill: #e0e0e0 } 
		.s2 { fill: #263238 } 
		.s3 { fill: #ffffff } 
		.t4 { font-size: 10px;fill: #263238;font-weight: 800;font-family: "Montserrat-ExtraBold", "Montserrat" } 
		.s5 { fill: #ff725e } 
		.s6 { fill: none;stroke: #ffffff;stroke-linecap: round;stroke-linejoin: round;stroke-width: 2 } 
		.s7 { fill: none;stroke: #ff725e;stroke-width: 2 } 
		.t8 { font-size: 11px;fill: #263238;font-weight: 800;font-family: "Montserrat-ExtraBold", "Montserrat" } 
		.t9 { font-size: 9px;fill: #263238;font-weight: 800;font-family: "Montserrat-ExtraBold", "Montserrat" } 
		.s10 { fill: #455a64 } 
		.s11 { fill: none;stroke: #455a64;stroke-linecap: round;stroke-linejoin: round;stroke-width: 2 } 
		.s12 { fill: #000000 } 
		.s13 { fill: #ffbf9d } 
		.s14 { fill: #ff9a6c } 
	</style>
	<g id="Background Complete">
		<g id="&lt;Group&gt;">
			<g id="&lt;Group&gt;">
				<path id="&lt;Path&gt;" class="s0" d="m308.8 417.1l-179.8-1.5l1-121.2l179.8 1.4z" />
			</g>
			<g id="&lt;Group&gt;">
				<g id="&lt;Group&gt;">
					<g id="&lt;Group&gt;">
						<path id="&lt;Path&gt;" class="s1" d="m310.4 297.3c0 0-0.6 0.6-1.7 1.6q-1.9 1.6-5 4.3c-4.6 3.9-11 9.2-18.8 15.8c-16.1 13.3-38.1 31.5-62.4 51.7l-0.5 0.4l-0.6-0.4q-0.6-0.5-1.2-1c-24.8-20.3-47.2-38.6-63.6-52c-8-6.6-14.5-12-19.2-15.9q-3.2-2.7-5.2-4.4c-1.1-1-1.7-1.5-1.7-1.6c0.1 0 0.7 0.4 2 1.4q2 1.5 5.3 4.1c4.7 3.8 11.4 9 19.5 15.5c16.5 13.3 39 31.5 63.9 51.6q0.7 0.5 1.3 1h-1.1c24.5-20 46.6-38.1 62.8-51.3c7.9-6.4 14.4-11.6 19.1-15.4q3.2-2.5 5.2-4.1c1.2-0.9 1.8-1.4 1.9-1.3z" />
					</g>
				</g>
			</g>
			<g id="&lt;Group&gt;">
				<g id="&lt;Group&gt;">
					<path id="&lt;Path&gt;" class="s1" d="m129.5 417c-0.3-0.2 13.3-16.8 30.5-36.8c17.2-20.1 31.4-36.1 31.8-35.8c0.3 0.3-13.3 16.8-30.5 36.8c-17.2 20.1-31.4 36.1-31.8 35.8z" />
				</g>
			</g>
			<g id="&lt;Group&gt;">
				<g id="&lt;Group&gt;">
					<path id="&lt;Path&gt;" class="s1" d="m251.6 343.3c0.3-0.2 13.6 16.4 29.5 37.1c16 20.8 28.6 37.8 28.3 38.1c-0.4 0.3-13.6-16.3-29.6-37.1c-15.9-20.7-28.6-37.8-28.2-38.1z" />
				</g>
			</g>
		</g>
		<g id="&lt;Group&gt;">
			<g id="&lt;Group&gt;">
				<path id="&lt;Path&gt;" class="s0" d="m1345 267.8l-109.5-0.9l0.6-73.8l109.5 0.9z" />
			</g>
			<g id="&lt;Group&gt;">
				<g id="&lt;Group&gt;">
					<g id="&lt;Group&gt;">
						<path id="&lt;Path&gt;" class="s1" d="m1346 194.9q0 0-1 0.9q-1.2 1-3.1 2.7c-2.8 2.3-6.7 5.6-11.4 9.6c-9.8 8.1-23.2 19.2-38.1 31.5l-0.3 0.2l-0.3-0.2q-0.4-0.3-0.8-0.6c-15.1-12.4-28.7-23.5-38.7-31.7c-4.9-4-8.9-7.3-11.7-9.7q-2-1.6-3.1-2.6q-1.1-1-1.1-1q0.1-0.1 1.2 0.8q1.2 1 3.2 2.5c2.9 2.3 7 5.5 11.9 9.5c10.1 8.1 23.8 19.1 39 31.4q0.4 0.3 0.7 0.6h-0.6c14.9-12.2 28.4-23.2 38.2-31.2c4.9-3.9 8.8-7.1 11.6-9.4q2-1.6 3.2-2.5q1.2-0.9 1.2-0.8z" />
					</g>
				</g>
			</g>
			<g id="&lt;Group&gt;">
				<g id="&lt;Group&gt;">
					<path id="&lt;Path&gt;" class="s1" d="m1235.8 267.8c-0.2-0.1 8.1-10.2 18.6-22.4c10.5-12.3 19.1-22 19.3-21.8c0.2 0.1-8.1 10.2-18.5 22.4c-10.5 12.2-19.2 22-19.4 21.8z" />
				</g>
			</g>
			<g id="&lt;Group&gt;">
				<g id="&lt;Group&gt;">
					<path id="&lt;Path&gt;" class="s1" d="m1310.2 222.9c0.2-0.1 8.3 10 18 22.6c9.7 12.7 17.4 23.1 17.2 23.2c-0.2 0.2-8.3-9.9-18-22.6c-9.7-12.6-17.4-23-17.2-23.2z" />
				</g>
			</g>
		</g>
		<g id="&lt;Group&gt;">
			<g id="&lt;Group&gt;">
				<g id="&lt;Group&gt;">
					<g id="&lt;Group&gt;">
						<g id="&lt;Group&gt;">
							<path id="&lt;Path&gt;" class="s0" d="m1400.6 809.9v67.4h11v8.1h-9.3v18h-20.8v12h20.8v55h-281.7v-60.5h-15.1v-9.8h15.1q0-88.6 0-90.2z" />
						</g>
					</g>
				</g>
				<g id="&lt;Group&gt;">
					<g id="&lt;Group&gt;">
						<g id="&lt;Group&gt;">
							<path id="&lt;Path&gt;" class="s1" d="m1400.6 809.9v66.4l11 0.2l0.2 9.3h-9.5v18l-20.8-0.4v11h20.8v55h-74.8v-159.3z" />
						</g>
					</g>
				</g>
				<g id="&lt;Group&gt;">
					<g id="&lt;Group&gt;">
						<g id="&lt;Group&gt;">
							<g id="&lt;Group&gt;">
								<path id="&lt;Path&gt;" class="s1" d="m1332.8 908.6c0 0.6-50.9 1-113.8 1c-62.9 0-113.9-0.4-113.9-1c0-0.5 51-1 113.9-1c62.9 0 113.8 0.5 113.8 1z" />
							</g>
						</g>
					</g>
				</g>
				<g id="&lt;Group&gt;">
					<g id="&lt;Group&gt;">
						<g id="&lt;Group&gt;">
							<g id="&lt;Group&gt;">
								<path id="&lt;Path&gt;" class="s1" d="m1332.8 899.5c0 0.5-50.9 1-113.8 1c-62.9 0-113.9-0.5-113.9-1c0-0.6 51-1 113.9-1c62.9 0 113.8 0.4 113.8 1z" />
							</g>
						</g>
					</g>
				</g>
				<g id="&lt;Group&gt;">
					<g id="&lt;Group&gt;">
						<g id="&lt;Group&gt;">
							<g id="&lt;Group&gt;">
								<path id="&lt;Path&gt;" class="s1" d="m1347.5 874.8c0 0.5-51 1-113.9 1c-62.9 0-113.9-0.5-113.9-1c0-0.6 51-1 113.9-1c62.9 0 113.9 0.4 113.9 1z" />
							</g>
						</g>
					</g>
				</g>
				<g id="&lt;Group&gt;">
					<g id="&lt;Group&gt;">
						<g id="&lt;Group&gt;">
							<g id="&lt;Group&gt;">
								<path id="&lt;Path&gt;" class="s1" d="m1348.9 942c0 0.6-51 1-113.9 1c-62.9 0-113.9-0.4-113.9-1c0-0.5 51-1 113.9-1c62.9 0 113.9 0.5 113.9 1z" />
							</g>
						</g>
					</g>
				</g>
			</g>
		</g>
	</g>
	<g id="Desk">
		<g id="&lt;Group&gt;">
			<path id="&lt;Path&gt;" class="s2" d="m1440.2 962.8c0 0.3-309 0.5-690.2 0.5c-381.2 0-690.2-0.2-690.2-0.5c0-0.3 309-0.5 690.2-0.5c381.2 0 690.2 0.2 690.2 0.5z" />
		</g>
	</g>
	<g id="Screen">
		<g id="&lt;Group&gt;">
			<path id="&lt;Path&gt;" class="s3" d="m1380.4 688.4h-382.4c-20.8 0-37.6-16.8-37.6-37.5v-287.9c0-16.1 13.1-29.2 29.2-29.2h404.5c13.2 0 23.8 10.7 23.8 23.9v293.2c0 20.7-16.8 37.5-37.5 37.5z" />
			<path id="&lt;Path&gt;" class="s1" d="m1417.9 383.5h-457.5v-20.5c0-16.1 13.1-29.2 29.2-29.2h404.5c13.2 0 23.8 10.7 23.8 23.9z" />
			<path id="&lt;Path&gt;" class="s3" d="m992.9 359.5c0 3.6-2.9 6.5-6.5 6.5c-3.5 0-6.4-2.9-6.4-6.5c0-3.6 2.9-6.4 6.4-6.4c3.6 0 6.5 2.8 6.5 6.4z" />
			<path id="&lt;Path&gt;" class="s3" d="m1014.3 359.5c0 3.6-2.9 6.5-6.5 6.5c-3.6 0-6.4-2.9-6.4-6.5c0-3.6 2.8-6.4 6.4-6.4c3.6 0 6.5 2.8 6.5 6.4z" />
			<path id="&lt;Path&gt;" class="s3" d="m1035.6 359.5c0 3.6-2.9 6.5-6.4 6.5c-3.6 0-6.5-2.9-6.5-6.5c0-3.6 2.9-6.4 6.5-6.4c3.5 0 6.4 2.8 6.4 6.4z" />
			<text id="Tasks
" style="transform: matrix(2,0,0,2,1112.989,430.954)" >
				<tspan x="0" y="0" class="t4">Tasks
</tspan>
			</text>
			<g id="&lt;Group&gt;">
				<path id="&lt;Path&gt;" class="s1" d="m1090.5 688.5c-0.2 0-0.5-67.8-0.5-151.4c0-83.5 0.3-151.3 0.5-151.3c0.3 0 0.6 67.8 0.6 151.3c0 83.6-0.3 151.4-0.6 151.4z" />
			</g>
			<path id="&lt;Path&gt;" class="s1" d="m1068.3 441.5h-81.9v-10.5h81.9z" />
			<path id="&lt;Path&gt;" class="s1" d="m1329.3 470.3h-217.2v-10.5h217.2z" />
			<path id="&lt;Path&gt;" class="s1" d="m1019 472.5h-32.6v-10.6h32.6z" />
			<path id="&lt;Path&gt;" class="s1" d="m1019 502.3h-32.6v-10.5h32.6z" />
			<g id="&lt;Group&gt;">
				<path id="&lt;Path&gt;" class="s5" d="m1376.3 474.6h-13.9c-1.5 0-2.6-1.2-2.6-2.6v-13.9c0-1.4 1.1-2.6 2.6-2.6h13.9c1.4 0 2.5 1.2 2.5 2.6v13.9c0 1.4-1.1 2.6-2.5 2.6z" />
				<path id="&lt;Path&gt;" class="s6" d="m1376.1 461.1l-8.1 7.9l-4.4-4" />
			</g>
			<path id="&lt;Path&gt;" class="s1" d="m1329.3 511.1h-217.2v-10.5h217.2z" />
			<g id="&lt;Group&gt;">
				<path id="&lt;Path&gt;" class="s7" d="m1376.3 515.4h-13.9c-1.5 0-2.6-1.2-2.6-2.6v-13.9c0-1.4 1.1-2.6 2.6-2.6h13.9c1.4 0 2.5 1.2 2.5 2.6v13.9c0 1.4-1.1 2.6-2.5 2.6z" />
			</g>
			<path id="&lt;Path&gt;" class="s1" d="m1329.3 551.9h-217.2v-10.5h217.2z" />
			<g id="&lt;Group&gt;">
				<path id="&lt;Path&gt;" class="s7" d="m1376.3 556.2h-13.9c-1.5 0-2.6-1.2-2.6-2.6v-13.9c0-1.4 1.1-2.6 2.6-2.6h13.9c1.4 0 2.5 1.2 2.5 2.6v13.9c0 1.4-1.1 2.6-2.5 2.6z" />
			</g>
			<path id="&lt;Path&gt;" class="s1" d="m1329.3 592.7h-217.2v-10.5h217.2z" />
			<g id="&lt;Group&gt;">
				<path id="&lt;Path&gt;" class="s7" d="m1376.3 597h-13.9c-1.5 0-2.6-1.2-2.6-2.6v-13.9c0-1.4 1.1-2.6 2.6-2.6h13.9c1.4 0 2.5 1.2 2.5 2.6v13.9c0 1.4-1.1 2.6-2.5 2.6z" />
			</g>
			<path id="&lt;Path&gt;" class="s1" d="m1329.3 633.6h-217.2v-10.6h217.2z" />
			<g id="&lt;Group&gt;">
				<path id="&lt;Path&gt;" class="s7" d="m1376.3 637.8h-13.9c-1.5 0-2.6-1.1-2.6-2.6v-13.9c0-1.4 1.1-2.5 2.6-2.5h13.9c1.4 0 2.5 1.1 2.5 2.5v13.9c0 1.5-1.1 2.6-2.5 2.6z" />
			</g>
			<g id="&lt;Group&gt;">
				<path id="&lt;Path&gt;" class="s2" d="m1380.4 688.4q0.3 0 1 0c0.7-0.1 1.7-0.1 3-0.2c2.7-0.4 6.6-1 11.4-3.2c4.7-2.2 10.3-5.8 14.7-12.1c2.3-3 4.3-6.7 5.6-10.9q0.4-1.6 0.8-3.2c0.2-1.1 0.4-2.3 0.6-3.4c0.2-2.3 0.3-4.7 0.2-7.2c0-39.7-0.1-97.2-0.1-168.1c0-35.5-0.1-74.4-0.1-116.2c0-2.6 0.1-5.2-0.1-7.8c-0.2-2.6-0.7-5.1-1.7-7.5c-2.1-4.8-5.8-8.9-10.4-11.5c-2.4-1.2-4.9-2.1-7.6-2.5c-2.6-0.4-5.3-0.3-8.1-0.3q-8.2 0-16.5 0c-22.2 0-45.1 0-68.6 0c-93.8 0-197 0-305.4 0.1c-6.7 0.1-13.6-0.7-19.8 1.9c-6.1 2.4-11.5 6.9-14.7 12.6c-1.6 2.9-2.7 6-3.2 9.2c-0.6 3.3-0.4 6.6-0.5 9.9q0 10 0 19.9c0 26.4 0 52.3 0 77.9c0 51.1 0 100.3 0 147.3q0 17.6 0 34.7c0 1.5-0.1 2.9 0 4.3c0.1 1.4 0.1 2.8 0.4 4.2l0.3 2.1l0.6 2c0.2 1.4 0.8 2.7 1.2 4c2 5.2 5.3 9.9 9.3 13.6c4 3.7 8.8 6.5 14 8.2c1.2 0.4 2.6 0.7 3.9 1c1.3 0.2 2.6 0.5 4 0.6c2.6 0.2 5.3 0.2 8 0.2q16.2 0 31.9 0c41.7 0 80.6 0.1 116.1 0.1c71 0 128.4 0.1 168.1 0.1c19.9 0.1 35.3 0.1 45.7 0.1q7.9 0.1 11.9 0.1q2.7 0 4.1 0q-1.4 0.1-4.1 0.1q-4 0-11.9 0c-10.4 0.1-25.8 0.1-45.7 0.1c-39.7 0.1-97.1 0.1-168.1 0.2c-35.5 0-74.4 0-116.1 0.1q-15.7 0-31.9 0c-2.7 0-5.4 0-8.1-0.2c-1.4-0.1-2.7-0.4-4.1-0.6c-1.3-0.3-2.7-0.6-4-1c-5.3-1.7-10.2-4.6-14.3-8.5c-4.2-3.8-7.5-8.5-9.5-13.9c-0.5-1.3-1-2.7-1.3-4.1l-0.6-2l-0.3-2.2c-0.3-1.4-0.3-2.8-0.4-4.3c-0.1-1.4 0-2.8-0.1-4.3q0-17.1 0-34.7c0-47 0-96.2 0-147.3c0-25.6 0-51.5 0-77.9q0-9.9 0-19.9c0-3.3-0.2-6.7 0.4-10c0.6-3.4 1.8-6.6 3.4-9.6c3.3-5.9 8.9-10.6 15.2-13.1c3.2-1.2 6.7-1.9 10.1-2c3.4 0 6.8 0 10.1 0c108.4 0 211.6 0 305.4 0.1c23.5 0 46.4 0 68.6 0q8.3 0 16.5 0c2.8 0 5.5-0.1 8.3 0.3c2.7 0.4 5.4 1.3 7.8 2.6c4.8 2.7 8.6 7 10.8 11.9c1 2.5 1.6 5.2 1.8 7.8c0.2 2.7 0 5.3 0.1 7.9c0 41.8-0.1 80.7-0.1 116.2c-0.1 70.9-0.1 128.4-0.2 168.1c0.1 2.5 0 4.9-0.3 7.2c-0.2 1.2-0.3 2.4-0.5 3.5q-0.5 1.6-0.9 3.2c-1.3 4.3-3.3 7.9-5.6 11c-4.5 6.3-10.2 9.9-14.9 12.1c-4.8 2.1-8.8 2.7-11.5 3.1q-2.6 0.1-4 0.1z" />
			</g>
		</g>
	</g>
	<g id="Device">
		<g id="&lt;Group&gt;">
			<g id="&lt;Group&gt;">
				<g id="&lt;Group&gt;">
					<g id="&lt;Group&gt;">
						<g id="&lt;Group&gt;">
							<g id="&lt;Group&gt;">
								<g id="&lt;Group&gt;">
									<g id="&lt;Group&gt;">
										<g id="&lt;Group&gt;">
											<g id="&lt;Group&gt;">
												<g id="&lt;Group&gt;">
													<g id="&lt;Group&gt;">
														<path id="&lt;Path&gt;" class="s2" d="m870.7 731.5l-215.7-0.1c-25.9 0-46.9-22.1-46.9-49.4l0.1-568.2c0-27.3 21-49.4 47-49.4l215.7 0.2c25.9 0 46.9 22.1 46.9 49.3l-0.1 568.3c0 27.2-21 49.3-47 49.3z" />
													</g>
												</g>
											</g>
										</g>
									</g>
								</g>
								<g id="&lt;Group&gt;">
									<g id="&lt;Group&gt;">
										<g id="&lt;Group&gt;">
											<g id="&lt;Group&gt;">
												<g id="&lt;Group&gt;">
													<g id="&lt;Group&gt;">
														<path id="&lt;Path&gt;" class="s3" d="m903.5 119.2l-0.1 554.7c0 19.1-14.7 34.5-32.9 34.5l-215.2-0.1c-18.2 0-32.9-15.5-32.9-34.6l0.1-554.6c0-19.1 14.7-34.6 32.9-34.6l36.6 0.1h14.7c5.6 0 10.2 5 10.2 11.1l-0.1 8c0 6.2 4.6 11.2 10.2 11.2h81.5c5.6 0 10.2-5 10.2-11.1v-8c0-6.2 4.5-11.2 10.1-11.2l41.8 0.1c18.2 0 32.9 15.5 32.9 34.5z" />
													</g>
												</g>
											</g>
										</g>
									</g>
								</g>
							</g>
						</g>
					</g>
				</g>
				<g id="&lt;Group&gt;">
					<g id="&lt;Group&gt;">
						<g id="&lt;Group&gt;">
							<path id="&lt;Path&gt;" class="s1" d="m681.2 656.1v13.6c0 1.1-1.3 1.9-2.3 1.2l-10.7-6.8c-0.9-0.5-0.9-1.9 0-2.5l10.7-6.8c1-0.6 2.3 0.1 2.3 1.3z" />
						</g>
					</g>
					<g id="&lt;Group&gt;">
						<g id="&lt;Group&gt;">
							<path id="&lt;Path&gt;" class="s1" d="m768.9 662.8c0 5.1-4.2 9.3-9.4 9.3c-5.1 0-9.3-4.2-9.3-9.3c0-5.2 4.2-9.4 9.3-9.4c5.2 0 9.4 4.2 9.4 9.4z" />
						</g>
					</g>
					<g id="&lt;Group&gt;">
						<g id="&lt;Group&gt;">
							<path id="&lt;Path&gt;" class="s1" d="m849.6 671.9h-9.8c-2 0-3.7-1.7-3.7-3.7v-9.9c0-2 1.7-3.7 3.7-3.7h9.8c2.1 0 3.8 1.7 3.8 3.7v9.9c0 2-1.7 3.7-3.8 3.7z" />
						</g>
					</g>
				</g>
			</g>
			<g id="&lt;Group&gt;">
				<g id="&lt;Group&gt;">
					<path id="&lt;Path&gt;" class="s2" d="m666.3 160c-2.3 0-5.1-0.1-8-0.1c-3.4-0.1-6.8-0.2-9.1-0.1q0 0-0.1 0c-0.5 0-1-0.5-1-1.1c0-0.6 0.4-1.1 1-1.1c2.4 0 5.8 0.1 9.3 0.1c3.4 0.1 6.8 0.1 9.1 0.1q0 0 0 0c0.6 0 1.1 0.5 1.1 1.1c0 0.6-0.5 1-1.1 1q-0.6 0.1-1.2 0.1z" />
				</g>
				<g id="&lt;Group&gt;">
					<path id="&lt;Path&gt;" class="s2" d="m655.7 167.1c-0.3 0-0.6-0.1-0.8-0.4l-6.6-7.3c-0.3-0.4-0.3-1 0.1-1.5l6.3-6.6c0.4-0.4 1.1-0.5 1.5-0.1c0.5 0.5 0.5 1.1 0.1 1.6l-5.7 5.9l5.9 6.6c0.3 0.4 0.3 1.1-0.1 1.5q-0.4 0.3-0.7 0.3z" />
				</g>
			</g>
			<g id="&lt;Group&gt;">
				<g id="&lt;Group&gt;">
					<path id="&lt;Path&gt;" class="s2" d="m881.4 148.6c0 1.8-1.5 3.3-3.3 3.3c-1.9 0-3.4-1.5-3.4-3.3c0-1.9 1.5-3.4 3.4-3.4c1.8 0 3.3 1.5 3.3 3.4z" />
				</g>
				<g id="&lt;Group&gt;">
					<path id="&lt;Path&gt;" class="s2" d="m881.4 159c0 1.9-1.5 3.3-3.3 3.3c-1.9 0-3.4-1.4-3.4-3.3c0-1.8 1.5-3.3 3.4-3.3c1.8 0 3.3 1.5 3.3 3.3z" />
				</g>
				<g id="&lt;Group&gt;">
					<path id="&lt;Path&gt;" class="s2" d="m881.4 169.5c0 1.8-1.5 3.3-3.3 3.3c-1.9 0-3.4-1.5-3.4-3.3c0-1.8 1.5-3.3 3.4-3.3c1.8 0 3.3 1.5 3.3 3.3z" />
				</g>
			</g>
			<text id="Focus Mode
" style="transform: matrix(2,0,0,2,698.962,167.085)" >
				<tspan x="0" y="0" class="t8">Focus Mode
</tspan>
			</text>
			<g id="&lt;Group&gt;">
				<path id="&lt;Path&gt;" class="s1" d="m903.4 211.1c0 0.3-62.7 0.5-140 0.5c-77.4 0-140.1-0.2-140.1-0.5c0-0.3 62.7-0.5 140.1-0.5c77.3 0 140 0.2 140 0.5z" />
			</g>
			<path id="&lt;Path&gt;" class="s0" d="m856.4 306.1h-186.9c-14.5 0-26.2-11.7-26.2-26.2v-7.7c0-14.5 11.7-26.2 26.2-26.2h186.9c14.4 0 26.2 11.7 26.2 26.2v7.7c0 14.5-11.8 26.2-26.2 26.2z" />
			<text id="Twitter
" style="transform: matrix(2,0,0,2,710.158,282.175)" >
				<tspan x="0" y="0" class="t9">Twitter
</tspan>
			</text>
			<path id="&lt;Path&gt;" class="s10" d="m697 276c0 9.4-7.6 17-16.9 17c-9.4 0-16.9-7.6-16.9-17c0-9.3 7.5-16.9 16.9-16.9c9.3 0 16.9 7.6 16.9 16.9z" />
			<g id="&lt;Group&gt;">
				<path id="&lt;Path&gt;" class="s5" d="m850.4 289.1h-16c-1.5 0-2.6-1.1-2.6-2.6v-16c0-1.4 1.1-2.6 2.6-2.6h16c1.4 0 2.6 1.2 2.6 2.6v16c0 1.5-1.2 2.6-2.6 2.6z" />
				<path id="&lt;Path&gt;" class="s6" d="m849.9 274.1l-9 8.8l-4.9-4.5" />
			</g>
			<path id="&lt;Path&gt;" class="s0" d="m856.4 378.4h-186.9c-14.5 0-26.2-11.8-26.2-26.3v-7.6c0-14.5 11.7-26.3 26.2-26.3h186.9c14.4 0 26.2 11.8 26.2 26.3v7.6c0 14.5-11.8 26.3-26.2 26.3z" />
			<text id="Doc
" style="transform: matrix(2,0,0,2,710.158,356.438)" >
				<tspan x="0" y="0" class="t9">Doc
</tspan>
			</text>
			<g id="&lt;Group&gt;">
				<path id="&lt;Path&gt;" class="s7" d="m850.4 361.4h-16c-1.5 0-2.6-1.2-2.6-2.6v-16.1c0-1.4 1.1-2.5 2.6-2.5h16c1.4 0 2.6 1.1 2.6 2.5v16.1c0 1.4-1.2 2.6-2.6 2.6z" />
			</g>
			<path id="&lt;Path&gt;" class="s0" d="m856.4 450.6h-186.9c-14.5 0-26.2-11.7-26.2-26.2v-7.7c0-14.4 11.7-26.2 26.2-26.2h186.9c14.4 0 26.2 11.8 26.2 26.2v7.7c0 14.5-11.8 26.2-26.2 26.2z" />
			<text id="Gmail
" style="transform: matrix(2,0,0,2,710.158,428.704)" >
				<tspan x="0" y="0" class="t9">Gmail
</tspan>
			</text>
			<g id="&lt;Group&gt;">
				<path id="&lt;Path&gt;" class="s5" d="m850.4 433.6h-16c-1.5 0-2.6-1.1-2.6-2.5v-16.1c0-1.4 1.1-2.6 2.6-2.6h16c1.4 0 2.6 1.2 2.6 2.6v16.1c0 1.4-1.2 2.5-2.6 2.5z" />
				<path id="&lt;Path&gt;" class="s6" d="m849.9 418.7l-9 8.7l-4.9-4.5" />
			</g>
			<path id="&lt;Path&gt;" class="s0" d="m856.4 522.9h-186.9c-14.5 0-26.2-11.8-26.2-26.2v-7.7c0-14.5 11.7-26.2 26.2-26.2h186.9c14.4 0 26.2 11.7 26.2 26.2v7.7c0 14.4-11.8 26.2-26.2 26.2z" />
			<text id="Whatsapp
" style="transform: matrix(2,0,0,2,710.158,498.972)" >
				<tspan x="0" y="0" class="t9">Whatsapp
</tspan>
			</text>
			<path id="&lt;Path&gt;" class="s10" d="m698.2 492.8c0 10.1-8.1 18.2-18.1 18.2c-10 0-18.2-8.1-18.2-18.2c0-10 8.2-18.1 18.2-18.1c10 0 18.1 8.1 18.1 18.1z" />
			<path id="&lt;Path&gt;" class="s10" d="m698.2 424.1c0 10-8.1 18.1-18.1 18.1c-10 0-18.2-8.1-18.2-18.1c0-10.1 8.2-18.2 18.2-18.2c10 0 18.1 8.1 18.1 18.2z" />
			<path id="&lt;Path&gt;" class="s10" d="m697.6 348.3c0 10-8.2 18.2-18.2 18.2c-10 0-18.2-8.2-18.2-18.2c0-10 8.2-18.2 18.2-18.2c10 0 18.2 8.2 18.2 18.2z" />
			<g id="&lt;Group&gt;">
				<path id="&lt;Path&gt;" class="s5" d="m850.4 505.9h-16c-1.5 0-2.6-1.1-2.6-2.6v-16c0-1.5 1.1-2.6 2.6-2.6h16c1.4 0 2.6 1.1 2.6 2.6v16c0 1.5-1.2 2.6-2.6 2.6z" />
				<path id="&lt;Path&gt;" class="s6" d="m849.9 490.9l-9 8.8l-4.9-4.5" />
			</g>
			<path id="&lt;Path&gt;" class="s0" d="m856.4 595.2h-186.9c-14.5 0-26.2-11.8-26.2-26.3v-7.6c0-14.5 11.7-26.3 26.2-26.3h186.9c14.4 0 26.2 11.8 26.2 26.3v7.6c0 14.5-11.8 26.3-26.2 26.3z" />
			<text id="YouTube
" style="transform: matrix(2,0,0,2,710.158,571.239)" >
				<tspan x="0" y="0" class="t9">YouTube
</tspan>
			</text>
			<g id="&lt;Group&gt;">
				<path id="&lt;Path&gt;" class="s5" d="m850.4 578.2h-16c-1.5 0-2.6-1.2-2.6-2.6v-16.1c0-1.4 1.1-2.5 2.6-2.5h16c1.4 0 2.6 1.1 2.6 2.5v16.1c0 1.4-1.2 2.6-2.6 2.6z" />
				<path id="&lt;Path&gt;" class="s6" d="m849.9 563.2l-9 8.7l-4.9-4.4" />
			</g>
			<path id="&lt;Path&gt;" class="s3" d="m676.9 279.8c-1.5 0-2.7-1-3.1-2.3q0.8 0.1 1.5-0.1c-1.6-0.3-2.7-1.8-2.7-3.3q0.7 0.4 1.5 0.4c-1.5-1-1.9-3-1-4.5c1.6 2 4.1 3.4 6.9 3.5c-0.5-2.1 1.1-4.1 3.2-4.1c1 0 1.9 0.4 2.5 1.1q1.1-0.3 2.1-0.8c-0.2 0.7-0.8 1.4-1.5 1.8q1.1-0.1 2-0.5q-0.7 1-1.7 1.7c0.2 4.7-3.3 10-9.5 10c-1.9 0-3.7-0.6-5.2-1.5c1.8 0.2 3.6-0.3 5-1.4z" />
			<g id="&lt;Group&gt;">
				<path id="&lt;Compound Path&gt;" fill-rule="evenodd" class="s3" d="m690 492.6c0 5.3-4.3 9.7-9.7 9.7c-1.7 0-3.3-0.5-4.7-1.2l-5.4 1.7l1.7-5.2c-0.9-1.5-1.4-3.2-1.4-5q0-0.2 0-0.4c0.3-5.2 4.5-9.3 9.8-9.3c5.3 0 9.6 4.2 9.7 9.4q0 0.2 0 0.3zm-1.5 0q0-0.3-0.1-0.7c-0.3-4.1-3.8-7.5-8.1-7.5c-4.3 0-7.8 3.3-8.2 7.4q0 0.4 0 0.8c0 1.8 0.6 3.4 1.5 4.7l-1 3.1l3.2-1c1.3 0.8 2.8 1.3 4.5 1.3c4.5 0 8.2-3.6 8.2-8.1z" />
				<path id="&lt;Path&gt;" class="s3" d="m685.2 494.8c0.1 0.1 0.1 0.6-0.1 1.1c-0.2 0.6-1.2 1.1-1.7 1.2c-0.4 0-0.4 0.3-2.8-0.6c-2.5-1-4-3.5-4.1-3.6c-0.1-0.1-0.6-0.8-0.9-1.7q-0.1-0.3-0.1-0.8c0-1.1 0.6-1.7 0.9-1.9c0.2-0.3 0.4-0.3 0.6-0.3q0.2 0 0.4 0c0.2 0 0.4-0.1 0.6 0.4c0.2 0.5 0.7 1.6 0.7 1.7c0.1 0.2 0.1 0.3 0 0.5q0 0.1-0.1 0.2q0 0.1-0.1 0.2c-0.1 0.1-0.2 0.3-0.4 0.4c-0.1 0.1-0.2 0.2-0.1 0.5c0.2 0.2 0.7 1 1.4 1.6c0.9 0.8 1.7 1 1.9 1.2c0.2 0.1 0.4 0.1 0.5-0.1c0.1-0.1 0.6-0.7 0.8-0.9c0.1-0.3 0.3-0.2 0.5-0.1c0.2 0 1.4 0.6 1.6 0.7c0.3 0.2 0.4 0.2 0.5 0.3z" />
			</g>
			<g id="&lt;Group&gt;">
				<g id="&lt;Group&gt;">
					<path id="&lt;Path&gt;" class="s3" d="m671 343.1q8.4 0 16.8 0c1.7 0 1.6 2.5 0 2.5q-8.4 0-16.8 0c-1.6 0-1.6-2.5 0-2.5z" />
				</g>
				<g id="&lt;Group&gt;">
					<path id="&lt;Path&gt;" class="s3" d="m671 348q8.4 0 16.8 0c1.7 0 1.6 2.5 0 2.5q-8.4 0-16.8 0c-1.6 0-1.6-2.5 0-2.5z" />
				</g>
				<g id="&lt;Group&gt;">
					<path id="&lt;Path&gt;" class="s3" d="m671 352.9q4.9 0 9.8 0c1.6 0 1.6 2.5 0 2.5q-4.9 0-9.8 0c-1.6 0-1.6-2.5 0-2.5z" />
				</g>
			</g>
			<path id="&lt;Path&gt;" class="s10" d="m698.2 565.7c0 10.1-8.1 18.2-18.1 18.2c-10 0-18.2-8.1-18.2-18.2c0-10 8.2-18.1 18.2-18.1c10 0 18.1 8.1 18.1 18.1z" />
			<g id="&lt;Group&gt;">
				<path id="&lt;Path&gt;" class="s3" d="m676.7 570.4v-10.6c0-0.5 0.5-0.9 1-0.6l9.5 5.4c0.5 0.2 0.4 0.9 0 1.1l-9.5 5.3c-0.5 0.3-1-0.1-1-0.6z" />
			</g>
			<g id="&lt;Group&gt;">
				<path id="&lt;Path&gt;" class="s3" d="m689 432.5h-18.1c-1.3 0-2.3-1-2.3-2.2v-12.1c0-1.2 1-2.3 2.3-2.3h18.1c1.2 0 2.3 1.1 2.3 2.3v12.1c0 1.2-1.1 2.2-2.3 2.2z" />
				<path id="&lt;Path&gt;" class="s11" d="m671 430.4v-12.1l9.3 5.2l8.5-5.2v12.1" />
			</g>
		</g>
	</g>
	<g id="Focus Icon">
		<g id="&lt;Group&gt;">
			<path id="&lt;Path&gt;" class="s0" d="m553.3 152c0 36.1-29.2 65.3-65.3 65.3c-36 0-65.3-29.2-65.3-65.3c0-36 29.3-65.3 65.3-65.3c36.1 0 65.3 29.3 65.3 65.3z" />
			<path id="&lt;Path&gt;" class="s1" d="m541.1 152c0 29.4-23.7 53.1-53.1 53.1c-29.3 0-53.1-23.7-53.1-53.1c0-29.3 23.8-53.1 53.1-53.1c29.4 0 53.1 23.8 53.1 53.1z" />
			<path id="&lt;Path&gt;" class="s2" d="m526 152c0 21-17 38-38 38c-20.9 0-37.9-17-37.9-38c0-20.9 17-37.9 37.9-37.9c21 0 38 17 38 37.9z" />
			<path id="&lt;Path&gt;" class="s1" d="m502.6 152c0 8.1-6.5 14.6-14.6 14.6c-8 0-14.5-6.5-14.5-14.6c0-8 6.5-14.5 14.5-14.5c8.1 0 14.6 6.5 14.6 14.5z" />
		</g>
	</g>
	<g id="Notifications Icon">
		<g id="&lt;Group&gt;">
			<g id="&lt;Group&gt;">
				<path id="&lt;Path&gt;" class="s0" d="m1133.4 190.7c0 52.8-42.8 95.5-95.5 95.5c-52.7 0-95.5-42.7-95.5-95.5c0-52.7 42.8-95.4 95.5-95.4c52.7 0 95.5 42.7 95.5 95.4z" />
			</g>
			<path id="&lt;Path&gt;" class="s10" d="m1054.4 238.5c-0.9 2.3-2.3 4.5-4.1 6.2c-4.5 4.1-11.5 5.2-17.1 2.9c-4-1.7-7.1-5.1-8.7-9.1h-38.7l14.2-18.1l-0.1-36.9c0-19.5 14.7-35.5 33.6-37.7v-16.1h10.2v16.2c18.3 2.8 32.2 18.6 32.2 37.6v38.8l14.1 16.2z" />
			<g id="&lt;Group&gt;">
				<g id="&lt;Group&gt;">
					<g id="&lt;Group&gt;">
						<g id="&lt;Group&gt;">
							<g id="&lt;Group&gt;">
								<path id="&lt;Path&gt;" class="s5" d="m1109.2 165c0 13.4-10.8 24.2-24.2 24.2c-13.4 0-24.2-10.8-24.2-24.2c0-13.3 10.8-24.2 24.2-24.2c13.4 0 24.2 10.9 24.2 24.2z" />
							</g>
						</g>
					</g>
				</g>
				<g id="&lt;Group&gt;">
					<g id="&lt;Group&gt;">
						<g id="&lt;Group&gt;">
							<g id="&lt;Group&gt;">
								<g id="&lt;Group&gt;">
									<g id="&lt;Group&gt;">
										<path id="&lt;Path&gt;" class="s3" d="m1079.6 173.7l-3.4-3.5l15.3-15.4l3.5 3.5z" />
									</g>
								</g>
							</g>
						</g>
					</g>
					<g id="&lt;Group&gt;">
						<g id="&lt;Group&gt;">
							<g id="&lt;Group&gt;">
								<g id="&lt;Group&gt;">
									<g id="&lt;Group&gt;">
										<path id="&lt;Path&gt;" class="s3" d="m1095 170.2l-3.5 3.5l-15.3-15.4l3.4-3.5z" />
									</g>
								</g>
							</g>
						</g>
					</g>
				</g>
			</g>
		</g>
	</g>
	<g id="Plant">
		<g id="&lt;Group&gt;">
			<g id="&lt;Group&gt;">
				<path id="&lt;Path&gt;" class="s2" d="m201.4 871.2q-13.6-94-12.5-148.7q1.2-54.7 0-116.2h6.2q-4.2 108.6 0.4 174q4.7 65.4 16.9 90.9z" />
				<path id="&lt;Path&gt;" class="s10" d="m204.4 638.3l-25.3-85.1c7.7-18.7 24.6-54.2 43.6-60.9c4.5-1.6 9.7-2.7 13.7-0.1c2.9 1.8 4.5 5.2 5.8 8.4c15.7 39.9 7.8 95.4-37.8 137.7z" />
				<g id="&lt;Group&gt;">
					<path id="&lt;Path&gt;" class="s2" d="m235 495.6q0 0.1-0.4 1.1q-0.5 1.3-1.2 3.1c-1.2 2.7-2.7 6.6-4.6 11.4c-3.7 9.7-8.4 23.2-12.7 38.5c-4.2 15.2-7.1 29.2-8.9 39.4c-0.9 5.1-1.6 9.3-2 12.1q-0.3 2-0.5 3.3q-0.2 1.2-0.3 1.2q0 0 0.1-1.2q0.1-1.3 0.3-3.3c0.3-2.9 0.9-7.1 1.7-12.2c1.6-10.2 4.4-24.3 8.6-39.6c4.3-15.3 9.1-28.8 13-38.4c2-4.8 3.7-8.7 4.9-11.3q0.8-1.9 1.4-3.1q0.5-1 0.6-1z" />
				</g>
				<path id="&lt;Path&gt;" class="s10" d="m193.2 658.7c-23.7-13.1-37.7-37.7-39-64.7c-0.9-18.9 4.9-37.5 11.5-55.2c0.6-1.5 1.2-3.2 2.7-4c2-1.1 4.4-0.1 6.4 1c17.2 9.8 27.7 28.5 33.2 47.5c3.7 12.7 5.6 26 3.9 39.1c-1.7 13-9.2 27.3-18.7 36.3z" />
				<g id="&lt;Group&gt;">
					<path id="&lt;Path&gt;" class="s2" d="m193.2 658.7q-0.1 0-0.1-1.1q0-1.3-0.1-3.3c0-2.8-0.1-6.9-0.3-12c-0.5-10.1-1.8-24.1-4.4-39.3c-2.7-15.3-5.9-28.9-8.2-38.8c-1.2-4.8-2.1-8.8-2.8-11.7q-0.4-1.9-0.7-3.2q-0.3-1.1-0.2-1.1q0 0 0.4 1.1q0.3 1.2 0.9 3.1c0.8 2.7 1.8 6.7 3.1 11.6c2.5 9.9 5.9 23.5 8.5 38.8c2.6 15.3 3.8 29.3 4.1 39.5c0.1 5.1 0.1 9.2 0 12q-0.1 2-0.1 3.3q-0.1 1.1-0.1 1.1z" />
				</g>
				<g id="&lt;Group&gt;" style="opacity: .3">
					<path id="&lt;Path&gt;" class="s12" d="m193.2 658.7c-23.7-13.1-37.7-37.7-39-64.7c-0.9-18.9 4.9-37.5 11.5-55.2c0.6-1.5 1.2-3.2 2.7-4c2-1.1 4.4-0.1 6.4 1c17.2 9.8 27.7 28.5 33.2 47.5c3.7 12.7 5.6 26 3.9 39.1c-1.7 13-9.2 27.3-18.7 36.3z" />
				</g>
				<path id="&lt;Path&gt;" class="s10" d="m220.6 801.7c10.7-3 22.2 0.1 32.8 3.7c20.6 7.2 40.4 16.6 58.9 28.2c6.6 4.1 13.3 8.9 16.2 16c-11.9-10.4-28.7-12.2-43.6-17.5c-22.5-8-41.7-24.5-65-29.6" />
				<path id="&lt;Path&gt;" class="s10" d="m186.2 823.3c-29.2-0.5-59.9-25.3-89-26.8c30.4-9.8 74-1.8 89 26.8z" />
				<path id="&lt;Path&gt;" class="s10" d="m208 729.9c6.1-7 14.9-11.8 24.2-12.2c7.7-0.3 15.3 2.3 21.9 6.2c6.7 3.9 12.5 9 18.3 14.1c7.7 6.7 15.9 14.3 17.4 24.5c-14.9-5-30-10-45.5-12.4c-15.6-2.4-31.9-2.2-46.7 3.2c1-9.3 4.3-16.3 10.4-23.4z" />
				<path id="&lt;Path&gt;" class="s10" d="m176.4 775.4c-31.9-25.9-72-50.2-109.1-68c24.2-0.5 52-2.1 70.4 13.6c23.2 19.8 39.7 37.3 38.7 54.4z" />
				<g id="&lt;Group&gt;" style="opacity: .3">
					<path id="&lt;Path&gt;" class="s12" d="m176.4 775.4c-31.9-25.9-72-50.2-109.1-68c24.2-0.5 52-2.1 70.4 13.6c23.2 19.8 39.7 37.3 38.7 54.4z" />
				</g>
				<path id="&lt;Path&gt;" class="s10" d="m226.9 662.9c11.8-10.5 26.3-17.1 40.7-23.6c10.3-4.6 20.7-9.3 31.6-12.3c10.9-3 22.5-4.2 33.6-1.9c-13.6 2.1-25.8 9.4-36.9 17.6c-11.1 8.1-21.6 17.2-33.7 23.8c-9.4 5-18.4 12-28.1 16.4c-9.6 4.4-19 10.3-28.2 16.5c-1.3-15.7 9.3-26.1 21-36.5z" />
				<g id="&lt;Group&gt;">
					<path id="&lt;Path&gt;" class="s2" d="m284.4 823.3q-0.1 0-1-0.4q-1-0.5-2.5-1.3c-2.2-1.2-5.4-2.9-9.3-4.9q-3-1.6-6.6-3.3q-3.5-1.7-7.5-3.4c-5.4-2.3-11.4-4.7-18-6.3c-6.6-1.6-13.1-2-18.7-0.5c-2.9 0.7-5.6 1.4-8 2.4c-2.4 1-4.5 2.1-6.4 3.3c-3.7 2.3-6.3 4.8-8 6.6c-1.7 1.8-2.5 3-2.6 2.9q-0.1 0 0.5-0.9q0.6-0.8 1.8-2.2c1.6-1.9 4.2-4.6 7.9-7c1.9-1.3 4.1-2.5 6.5-3.5c2.4-1.1 5.2-1.8 8-2.5c5.8-1.6 12.6-1.2 19.2 0.4c6.7 1.6 12.7 4 18.1 6.4q4.1 1.8 7.6 3.6q3.6 1.7 6.5 3.3c3.9 2.1 7 3.9 9.2 5.2q1.4 0.9 2.4 1.5q0.9 0.5 0.9 0.6z" />
				</g>
				<g id="&lt;Group&gt;">
					<path id="&lt;Path&gt;" class="s2" d="m164.4 808.8c0 0 0.7 0.2 1.8 0.6c1.2 0.4 2.8 1.1 4.8 2c3.9 2 9.1 5.3 13.9 9.9c4.9 4.7 8.4 9.7 10.5 13.6c1 1.9 1.8 3.5 2.2 4.6c0.5 1.2 0.7 1.8 0.7 1.8c-0.2 0.1-1.3-2.4-3.5-6.1c-2.3-3.7-5.8-8.5-10.6-13.1c-4.7-4.6-9.7-7.9-13.5-10c-3.8-2.1-6.4-3.1-6.3-3.3z" />
				</g>
				<g id="&lt;Group&gt;">
					<path id="&lt;Path&gt;" class="s2" d="m99.8 719.6q0.1-0.1 1.3 0.3q1.3 0.5 3.5 1.3q2.3 0.8 5.5 2c2.1 0.8 4.5 2 7.1 3.2c10.5 4.7 24.5 12.8 38 24.2c6.7 5.8 12.7 11.7 17.8 17.4c5 5.8 9.2 11.2 12.5 16c3.4 4.7 5.9 8.6 7.6 11.3q1.3 2 2 3.2q0.7 1.1 0.7 1.1q-0.1 0-0.8-1q-0.8-1-2.2-3c-1.8-2.7-4.5-6.6-7.9-11.2c-3.3-4.7-7.6-10-12.7-15.7c-5-5.7-11-11.6-17.6-17.3c-13.5-11.4-27.3-19.4-37.7-24.4c-2.6-1.2-4.9-2.4-7-3.2q-3.2-1.3-5.5-2.2q-2.1-0.9-3.4-1.5q-1.2-0.5-1.2-0.5z" />
				</g>
				<g id="&lt;Group&gt;">
					<path id="&lt;Path&gt;" class="s2" d="m241.4 736.9c0 0-0.8-0.1-2.3-0.3q-1.2-0.3-2.7-0.5c-1-0.2-2.3-0.3-3.6-0.4c-5.2-0.4-12.9 0.1-20.1 4c-3.6 1.8-6.6 4.3-9.1 6.7c-2.5 2.5-4.4 5.1-5.9 7.3c-2.9 4.5-3.8 7.7-4 7.7c0-0.1 0.1-0.9 0.6-2.3c0.6-1.4 1.4-3.5 2.8-5.8c1.4-2.3 3.3-5 5.8-7.5c2.5-2.6 5.6-5.2 9.4-7.1c7.3-4 15.3-4.3 20.6-3.7c1.3 0.2 2.5 0.2 3.6 0.5q1.5 0.4 2.7 0.7c1.4 0.3 2.2 0.6 2.2 0.7z" />
				</g>
				<g id="&lt;Group&gt;">
					<path id="&lt;Path&gt;" class="s2" d="m270.7 645.8q0.1 0.1-1.1 0.7q-1.2 0.7-3.2 1.8c-2.8 1.5-6.9 3.8-11.9 6.7c-4.9 2.9-10.7 6.6-16.9 11c-6.1 4.4-12.8 9.5-18.9 15.8c-3 3.1-5.8 6.4-7.7 10c-1.9 3.7-3.7 7.2-5.4 10.6c-3.4 6.8-6.1 13.1-8.1 18.5c-2 5.4-3.2 9.9-4 13c-0.7 3.1-1 4.9-1.1 4.9q0-0.1 0.1-1.3c0.1-0.9 0.3-2.1 0.6-3.7c0.6-3.2 1.8-7.7 3.7-13.2c1.9-5.4 4.6-11.7 7.9-18.6c1.7-3.4 3.5-7 5.4-10.7c2-3.7 4.8-7 7.9-10.2c6.2-6.4 12.8-11.5 19.1-15.9c6.2-4.4 12.1-8 17.1-10.9c5-2.8 9.1-5 12-6.4q2.1-1 3.3-1.6q1.2-0.5 1.2-0.5z" />
				</g>
				<g id="&lt;Group&gt;">
					<path id="&lt;Path&gt;" class="s2" d="m188.9 734.2c-0.1 0-0.3-0.8-0.6-2.4q-0.5-2.7-1.3-6.8c-1.1-5.7-2.8-13.5-5.5-21.9c-2.7-8.4-5.9-15.7-8.3-21q-1.7-3.7-2.9-6.2c-0.6-1.5-1-2.4-0.9-2.4c0.1 0 0.5 0.7 1.3 2.2c0.8 1.4 1.8 3.5 3.1 6.1c2.6 5.2 6 12.5 8.7 21c2.7 8.5 4.3 16.4 5.3 22.1c0.4 2.9 0.7 5.2 0.9 6.8c0.2 1.6 0.3 2.5 0.2 2.5z" />
				</g>
				<path id="&lt;Path&gt;" class="s10" d="m180.5 698.4l-8.5-17.4q-32.6-48.7-65.2-97.3c29.7 5.9 56.3 25.8 70.5 52.6c5.1 9.8 8.7 20.5 9.5 31.5c0.7 11-0.6 21.1-6.3 30.6z" />
			</g>
			<g id="&lt;Group&gt;">
				<g id="&lt;Group&gt;">
					<path id="&lt;Path&gt;" class="s5" d="m280.4 886.5h-151.8v-26.9h151.8z" />
				</g>
				<g id="&lt;Group&gt;">
					<path id="&lt;Path&gt;" class="s5" d="m269.1 881.1l-15.4 83.5h-100.8l-13-83.5z" />
				</g>
				<g id="&lt;Group&gt;">
					<g id="&lt;Group&gt;">
						<path id="&lt;Path&gt;" class="s2" d="m280.3 886.5c0 0.3-34.2 0.5-76.4 0.5c-42.3 0-76.5-0.2-76.5-0.5c0-0.3 34.2-0.5 76.5-0.5c42.2 0 76.4 0.2 76.4 0.5z" />
					</g>
				</g>
			</g>
		</g>
	</g>
	<g id="Character">
		<g id="&lt;Group&gt;">
			<g id="&lt;Group&gt;">
				<g id="&lt;Group&gt;">
					<g id="&lt;Group&gt;">
						<g id="&lt;Group&gt;">
							<path id="&lt;Path&gt;" class="s2" d="m585.7 299.9c13.8 20.4 19.6 45.5 18.7 70.1c-1.4 35.6-17.6 71.2-46.1 92.7c-28.4 21.5-69.1 27.1-100.9 11c-23.3-11.8-40.5-34.3-47.7-59.4c-7.3-25.1-5-52.5 4.4-76.8c9-23.2 24.5-44 45.2-57.7c20.6-13.8 42.1-23.2 66.5-19.1c24.3 3.6 46.2 18.8 59.9 39.2z" />
						</g>
					</g>
					<g id="&lt;Group&gt;">
						<g id="&lt;Group&gt;">
							<g id="&lt;Group&gt;">
								<g id="&lt;Group&gt;">
									<path id="&lt;Path&gt;" class="s2" d="m456.3 343.9c3.6-9.4 2.2-19.8 3.6-29.8c3.1-21.8 20.7-39.3 41-47.8c19-7.9 42.1-6.2 64.9 1.2c15.6 5 30.3 13.8 40.7 26.5c13.8 16.9 18.7 40.7 12.6 61.6l-111.7-16.3c-10.4 8.7-21.1 17.5-33.8 22.3c-3.7 1.4-7.7 2.5-11.7 1.9c-3.9-0.7-7.7-3.3-8.7-7.2c-1-4.2 1.5-8.4 3.1-12.4z" />
								</g>
							</g>
						</g>
						<g id="&lt;Group&gt;">
							<g id="&lt;Group&gt;">
								<g id="&lt;Group&gt;">
									<path id="&lt;Path&gt;" class="s13" d="m619 366.2c0.9 34.6 0.5 76.8-4.6 102.4q-10.2 51.4-50.1 56.4c0-0.1-0.1 19-1.1 37.7l-1.8 20.6c-0.1 1.6-0.6 2.9-0.9 4.8c-0.4 1.5-1.2 3.4-2.3 5.5c-16.2 30.6-59.1 33.3-80.3 6l-9.3-12c-8.9-11.4-13.7-25.4-13.8-39.8l-1.1-211c0.1-9.5 7.5-17.2 16.9-17.8l97.6-20.7c31-2.1 50.1 36.8 50.8 67.9z" />
								</g>
							</g>
						</g>
						<g id="&lt;Group&gt;">
							<g id="&lt;Group&gt;">
								<g id="&lt;Group&gt;">
									<g id="&lt;Group&gt;">
										<g id="&lt;Group&gt;">
											<g id="&lt;Group&gt;">
												<g id="&lt;Group&gt;">
													<g id="&lt;Group&gt;">
														<g id="&lt;Group&gt;">
															<g id="&lt;Group&gt;">
																<g id="&lt;Group&gt;">
																	<g id="&lt;Group&gt;">
																		<g id="&lt;Group&gt;">
																			<g id="&lt;Group&gt;">
																				<g id="&lt;Group&gt;">
																					<g id="&lt;Group&gt;">
																						<g id="&lt;Group&gt;">
																							<g id="&lt;Group&gt;">
																								<g id="&lt;Group&gt;">
																									<path id="&lt;Path&gt;" class="s2" d="m604.2 405.8c0 3.5-3 6.4-6.7 6.5c-3.6 0-6.6-2.8-6.6-6.3c0.1-3.5 3-6.4 6.7-6.4c3.7-0.1 6.6 2.7 6.6 6.2z" />
																								</g>
																							</g>
																						</g>
																					</g>
																				</g>
																			</g>
																		</g>
																	</g>
																</g>
															</g>
														</g>
													</g>
												</g>
											</g>
										</g>
									</g>
									<g id="&lt;Group&gt;">
										<g id="&lt;Group&gt;">
											<g id="&lt;Group&gt;">
												<g id="&lt;Group&gt;">
													<g id="&lt;Group&gt;">
														<g id="&lt;Group&gt;">
															<g id="&lt;Group&gt;">
																<g id="&lt;Group&gt;">
																	<g id="&lt;Group&gt;">
																		<g id="&lt;Group&gt;">
																			<g id="&lt;Group&gt;">
																				<g id="&lt;Group&gt;">
																					<g id="&lt;Group&gt;">
																						<g id="&lt;Group&gt;">
																							<g id="&lt;Group&gt;">
																								<g id="&lt;Group&gt;">
																									<g id="&lt;Group&gt;">
																										<path id="&lt;Path&gt;" class="s2" d="m609 387.8c-0.8 0.9-5.7-3.1-12.8-3.3c-7.2-0.4-12.6 3.1-13.3 2.2c-0.4-0.4 0.5-1.9 2.9-3.5c2.3-1.6 6.2-3 10.6-2.9c4.5 0.2 8.2 2 10.2 3.8c2.2 1.8 2.9 3.3 2.4 3.7z" />
																									</g>
																								</g>
																							</g>
																						</g>
																					</g>
																				</g>
																			</g>
																		</g>
																	</g>
																</g>
															</g>
														</g>
													</g>
												</g>
											</g>
										</g>
									</g>
								</g>
								<g id="&lt;Group&gt;">
									<g id="&lt;Group&gt;">
										<g id="&lt;Group&gt;">
											<g id="&lt;Group&gt;">
												<g id="&lt;Group&gt;">
													<g id="&lt;Group&gt;">
														<g id="&lt;Group&gt;">
															<g id="&lt;Group&gt;">
																<g id="&lt;Group&gt;">
																	<g id="&lt;Group&gt;">
																		<g id="&lt;Group&gt;">
																			<g id="&lt;Group&gt;">
																				<g id="&lt;Group&gt;">
																					<g id="&lt;Group&gt;">
																						<g id="&lt;Group&gt;">
																							<g id="&lt;Group&gt;">
																								<g id="&lt;Group&gt;">
																									<path id="&lt;Path&gt;" class="s2" d="m540.2 404.2c0 3.5-3 6.4-6.6 6.5c-3.7 0-6.7-2.8-6.6-6.3c0-3.5 2.9-6.4 6.6-6.4c3.7-0.1 6.6 2.7 6.6 6.2z" />
																								</g>
																							</g>
																						</g>
																					</g>
																				</g>
																			</g>
																		</g>
																	</g>
																</g>
															</g>
														</g>
													</g>
												</g>
											</g>
										</g>
									</g>
									<g id="&lt;Group&gt;">
										<g id="&lt;Group&gt;">
											<g id="&lt;Group&gt;">
												<g id="&lt;Group&gt;">
													<g id="&lt;Group&gt;">
														<g id="&lt;Group&gt;">
															<g id="&lt;Group&gt;">
																<g id="&lt;Group&gt;">
																	<g id="&lt;Group&gt;">
																		<g id="&lt;Group&gt;">
																			<g id="&lt;Group&gt;">
																				<g id="&lt;Group&gt;">
																					<g id="&lt;Group&gt;">
																						<g id="&lt;Group&gt;">
																							<g id="&lt;Group&gt;">
																								<g id="&lt;Group&gt;">
																									<g id="&lt;Group&gt;">
																										<path id="&lt;Path&gt;" class="s2" d="m541.2 386.1c-0.8 0.8-5.7-3.1-12.8-3.4c-7.2-0.3-12.5 3.1-13.3 2.2c-0.4-0.4 0.5-1.9 2.9-3.5c2.3-1.5 6.2-3 10.6-2.8c4.5 0.2 8.2 2 10.2 3.7c2.2 1.8 2.9 3.4 2.4 3.8z" />
																									</g>
																								</g>
																							</g>
																						</g>
																					</g>
																				</g>
																			</g>
																		</g>
																	</g>
																</g>
															</g>
														</g>
													</g>
												</g>
											</g>
										</g>
									</g>
								</g>
								<g id="&lt;Group&gt;">
									<g id="&lt;Group&gt;">
										<g id="&lt;Group&gt;">
											<g id="&lt;Group&gt;">
												<g id="&lt;Group&gt;">
													<g id="&lt;Group&gt;">
														<g id="&lt;Group&gt;">
															<g id="&lt;Group&gt;">
																<g id="&lt;Group&gt;">
																	<g id="&lt;Group&gt;">
																		<g id="&lt;Group&gt;">
																			<g id="&lt;Group&gt;">
																				<g id="&lt;Group&gt;">
																					<g id="&lt;Group&gt;">
																						<g id="&lt;Group&gt;">
																							<g id="&lt;Group&gt;">
																								<g id="&lt;Group&gt;">
																									<path id="&lt;Path&gt;" class="s2" d="m562.7 440.4c-0.1-0.4 4.4-1 11.6-1.7c1.9-0.1 3.6-0.4 4-1.6c0.4-1.3-0.2-3.3-1-5.5q-2.4-6.7-4.9-14.1c-6.7-20-11.5-36.5-10.7-36.7c0.8-0.3 6.9 15.7 13.6 35.8q2.5 7.4 4.7 14.2c0.6 2.1 1.7 4.5 0.6 7.2c-0.5 1.3-1.9 2.2-3.1 2.5c-1.2 0.3-2.2 0.3-3.1 0.3c-7.2 0.1-11.7 0-11.7-0.4z" />
																								</g>
																							</g>
																						</g>
																					</g>
																				</g>
																			</g>
																		</g>
																	</g>
																</g>
															</g>
														</g>
													</g>
												</g>
											</g>
										</g>
									</g>
								</g>
								<g id="&lt;Group&gt;">
									<g id="&lt;Group&gt;">
										<g id="&lt;Group&gt;">
											<g id="&lt;Group&gt;">
												<g id="&lt;Group&gt;">
													<g id="&lt;Group&gt;">
														<g id="&lt;Group&gt;">
															<g id="&lt;Group&gt;">
																<g id="&lt;Group&gt;">
																	<g id="&lt;Group&gt;">
																		<g id="&lt;Group&gt;">
																			<g id="&lt;Group&gt;">
																				<g id="&lt;Group&gt;">
																					<g id="&lt;Group&gt;">
																						<g id="&lt;Group&gt;">
																							<g id="&lt;Group&gt;">
																								<path id="&lt;Path&gt;" class="s14" d="m563.7 537.5q-51.9 2.9-67.9-33.6q33.6 22 68.5 21.1z" />
																							</g>
																						</g>
																					</g>
																				</g>
																			</g>
																		</g>
																	</g>
																</g>
															</g>
														</g>
													</g>
												</g>
											</g>
										</g>
									</g>
								</g>
								<g id="&lt;Group&gt;">
									<g id="&lt;Group&gt;">
										<g id="&lt;Group&gt;">
											<g id="&lt;Group&gt;">
												<g id="&lt;Group&gt;">
													<g id="&lt;Group&gt;">
														<g id="&lt;Group&gt;">
															<g id="&lt;Group&gt;">
																<g id="&lt;Group&gt;">
																	<g id="&lt;Group&gt;">
																		<g id="&lt;Group&gt;">
																			<g id="&lt;Group&gt;">
																				<g id="&lt;Group&gt;">
																					<g id="&lt;Group&gt;">
																						<g id="&lt;Group&gt;">
																							<g id="&lt;Group&gt;">
																								<path id="&lt;Path&gt;" class="s14" d="m559.3 457.7c0.5 0.7 0.4 1.8-0.1 2.7c-0.5 0.8-1.4 1.4-2.1 2c-2.9 2.1-5.9 4.3-9.4 5.1c-3.4 0.8-7.4 0-9.2-2.7c-1.7-2.5-1.1-6.1 0.8-8.5c2-2.5 5.2-3.8 8.3-4.1c4.5-0.3 8.9 1.8 11.4 5.3" />
																							</g>
																						</g>
																					</g>
																				</g>
																			</g>
																		</g>
																	</g>
																</g>
															</g>
														</g>
													</g>
												</g>
											</g>
										</g>
									</g>
								</g>
								<g id="&lt;Group&gt;">
									<g id="&lt;Group&gt;">
										<g id="&lt;Group&gt;">
											<g id="&lt;Group&gt;">
												<g id="&lt;Group&gt;">
													<g id="&lt;Group&gt;">
														<g id="&lt;Group&gt;">
															<g id="&lt;Group&gt;">
																<g id="&lt;Group&gt;">
																	<g id="&lt;Group&gt;">
																		<g id="&lt;Group&gt;">
																			<g id="&lt;Group&gt;">
																				<g id="&lt;Group&gt;">
																					<g id="&lt;Group&gt;">
																						<g id="&lt;Group&gt;">
																							<g id="&lt;Group&gt;">
																								<g id="&lt;Group&gt;">
																									<path id="&lt;Path&gt;" class="s2" d="m541.5 444.5c1.1 0 0.8 7.7 7.3 13.5c6.4 5.8 14.7 5.2 14.7 6.3c0.1 0.5-1.9 1.4-5.4 1.4c-3.4 0-8.4-1.3-12.3-4.8c-3.9-3.6-5.5-8.1-5.6-11.3c-0.2-3.3 0.7-5.2 1.3-5.1z" />
																								</g>
																							</g>
																						</g>
																					</g>
																				</g>
																			</g>
																		</g>
																	</g>
																</g>
															</g>
														</g>
													</g>
												</g>
											</g>
										</g>
									</g>
								</g>
							</g>
						</g>
						<g id="&lt;Group&gt;">
							<g id="&lt;Group&gt;">
								<g id="&lt;Group&gt;">
									<g id="&lt;Group&gt;">
										<g id="&lt;Group&gt;">
											<g id="&lt;Group&gt;">
												<g id="&lt;Group&gt;">
													<g id="&lt;Group&gt;">
														<g id="&lt;Group&gt;">
															<g id="&lt;Group&gt;">
																<g id="&lt;Group&gt;">
																	<g id="&lt;Group&gt;">
																		<g id="&lt;Group&gt;">
																			<g id="&lt;Group&gt;">
																				<g id="&lt;Group&gt;">
																					<path id="&lt;Path&gt;" class="s2" d="m540.8 364.9c-0.7 1.9-7.8 0.7-16.2 1.4c-8.5 0.5-15.3 2.7-16.4 0.9c-0.4-0.8 0.8-2.6 3.6-4.4c2.8-1.8 7.2-3.4 12.2-3.7c5.1-0.4 9.7 0.6 12.7 1.9c3 1.4 4.5 3 4.1 3.9z" />
																				</g>
																			</g>
																		</g>
																	</g>
																</g>
															</g>
														</g>
													</g>
												</g>
											</g>
										</g>
									</g>
								</g>
							</g>
						</g>
						<g id="&lt;Group&gt;">
							<g id="&lt;Group&gt;">
								<g id="&lt;Group&gt;">
									<g id="&lt;Group&gt;">
										<g id="&lt;Group&gt;">
											<g id="&lt;Group&gt;">
												<g id="&lt;Group&gt;">
													<g id="&lt;Group&gt;">
														<g id="&lt;Group&gt;">
															<g id="&lt;Group&gt;">
																<g id="&lt;Group&gt;">
																	<g id="&lt;Group&gt;">
																		<g id="&lt;Group&gt;">
																			<g id="&lt;Group&gt;">
																				<g id="&lt;Group&gt;">
																					<path id="&lt;Path&gt;" class="s2" d="m608.2 356.5c-1.3 1.6-6.2-0.3-12.1-0.6c-5.9-0.5-11 0.7-12.1-1.1c-0.4-0.8 0.4-2.4 2.7-3.9c2.2-1.4 5.8-2.5 9.9-2.2c4.1 0.3 7.5 1.9 9.5 3.6c2 1.8 2.7 3.4 2.1 4.2z" />
																				</g>
																			</g>
																		</g>
																	</g>
																</g>
															</g>
														</g>
													</g>
												</g>
											</g>
										</g>
									</g>
								</g>
							</g>
						</g>
						<g id="&lt;Group&gt;">
							<g id="&lt;Group&gt;">
								<g id="&lt;Group&gt;">
									<path id="&lt;Path&gt;" class="s2" d="m438.4 328.8c10.1-29.7 54.3-70.2 85.5-67.3l49.4 30.9c-3.4 17-16.8 31.5-33.5 36.2c-8.9 2.6-19.5 3.1-24.9 10.6c-5.5 7.6-2.6 19-7.8 26.9c-7.1 10.9-26 10-31.5 21.9c-2.3 5.2-1.3 11.5-3.7 16.6c-3.3 6.9-21 15.3-28.2 12.9c-7.2-2.4-7-14.8-9.3-21.3c-3.8-11.1-2-16.8-0.5-23c3.4-14.6-0.3-30.2 4.5-44.4z" />
								</g>
							</g>
						</g>
						<g id="&lt;Group&gt;">
							<g id="&lt;Group&gt;">
								<g id="&lt;Group&gt;">
									<g id="&lt;Group&gt;">
										<g id="&lt;Group&gt;">
											<g id="&lt;Group&gt;">
												<path id="&lt;Path&gt;" class="s13" d="m461.8 462.7c-0.1 1-35.8 6.7-34.2-28.6c1.2-25.8 19.5-25.9 29.6-23.9c3.8 0.7 7.9 10 7.7 13.8c-0.4 13.3-3 37.9-3.1 38.7z" />
											</g>
										</g>
									</g>
								</g>
							</g>
						</g>
						<g id="&lt;Group&gt;">
							<g id="&lt;Group&gt;">
								<g id="&lt;Group&gt;">
									<g id="&lt;Group&gt;">
										<g id="&lt;Group&gt;">
											<g id="&lt;Group&gt;">
												<g id="&lt;Group&gt;">
													<path id="&lt;Path&gt;" class="s14" d="m450.4 450.5c-1.1 0.8-3.2 1.5-5.6 0.7c-5.1-1.7-8.4-8.5-8.3-15.6c0.1-3.7 1-7 2.6-9.8c1.4-2.7 3.9-5.1 6.6-5.1c1.4-0.1 2.6 0.3 3.4 1c0.8 0.7 1.2 1.6 1.3 2.3c0.2 1.4-0.5 2.1-0.6 2c-0.2-0.1 0.1-0.8-0.3-1.8c-0.4-1-1.7-2.2-3.6-1.8c-1.9 0.2-3.6 2-4.8 4.5c-1.3 2.5-2.1 5.5-2.1 8.7c-0.2 6.4 2.7 12.4 6.4 14c1.8 0.7 3.5 0.5 4.6 0.1c1-0.5 1.5-1 1.7-0.9c0.1 0.1-0.1 0.9-1.3 1.7z" />
												</g>
											</g>
										</g>
									</g>
								</g>
							</g>
						</g>
					</g>
					<g id="&lt;Group&gt;">
						<g id="&lt;Group&gt;">
							<path id="&lt;Path&gt;" class="s2" d="m613.5 300c12.9 13.4 19.8 32 20.4 50.6c0.7 18.6-5.9 34.7-14.6 51.2c0.2-47.7-3.4-54.8-21.6-76.1c-9.6-11.2-31.4-29.6-34.7-44c18.4-2.6 37.6 5 50.5 18.3z" />
						</g>
					</g>
				</g>
				<path id="&lt;Path&gt;" class="s2" d="m486.8 274.7c-15.3 26-28.5 41.3-53.5 59.8c-7.2 5.4-14.8 10.4-23.3 13.8c-8.5 3.5-17.9 5.3-27.1 4c6.4-2.7 11.7-7.6 14.6-13.5c-5.5 1.2-11 2.4-16.6 2c-5.7-0.3-11.4-2.2-14.9-6.3c10.6-4.6 20-11.6 27-20.2c-13.5-8.3-21-23.9-19.7-38.9c1.2-15 10.8-28.9 24.2-37.3c13.5-8.4 30.5-11.4 46.5-9.3c11.3 1.5 22.4 5.6 30.7 12.8c8.2 7.2 13.4 22.7 12.1 33.1z" />
				<path id="&lt;Path&gt;" class="s10" d="m467 467.8c0 8.5-6.8 15.3-15.3 15.3c-8.5 0-15.3-6.8-15.3-15.3c0-8.5 6.8-15.3 15.3-15.3c8.5 0 15.3 6.8 15.3 15.3z" />
				<g id="&lt;Group&gt;">
					<path id="&lt;Path&gt;" class="s2" d="m425.4 321.3c16.3-30.9 39.5-49 61.6-56.4" />
					<g id="&lt;Group&gt;">
						<path id="&lt;Path&gt;" class="s10" d="m487 264.9c0 0.1-1.1 0.6-3.1 1.4c-2 0.8-4.9 2-8.3 3.8c-6.8 3.5-15.8 9.4-24.4 17.5c-8.5 8.1-15 16.6-19.2 23.1c-2.1 3.2-3.8 5.9-4.8 7.7c-1.1 1.9-1.8 2.9-1.8 2.9c-0.1-0.1 0.4-1.1 1.4-3.1c1-1.9 2.6-4.6 4.6-7.9c4.1-6.6 10.5-15.3 19.1-23.5c8.6-8.2 17.8-14 24.8-17.4c3.5-1.7 6.4-2.8 8.5-3.5c2-0.7 3.2-1 3.2-1z" />
					</g>
				</g>
				<g id="&lt;Group&gt;">
					<path id="&lt;Path&gt;" class="s10" d="m404.7 348.3q0.1 0 0.5 0.1q0.5 0.2 1.3 0.4c1.2 0.4 2.9 0.8 5.1 1.3c4.5 1 11.1 1.9 19.3 1.7c8.1-0.2 17.8-1.7 28.2-5c10.3-3.2 21.1-8.2 32.1-14.1c11-6 21.3-12.1 30.4-17.9c9.1-5.9 17-11.7 23.1-17.1c6.2-5.4 10.6-10.3 13.6-13.8c1.5-1.8 2.5-3.2 3.3-4.2q0.5-0.6 0.8-1q0.3-0.4 0.3-0.4q0.1 0-0.2 0.4q-0.3 0.5-0.8 1.2c-0.7 1-1.7 2.4-3.1 4.2c-2.9 3.6-7.3 8.6-13.4 14.1c-6.1 5.6-14 11.5-23.1 17.4c-9.1 5.9-19.4 12-30.4 18c-11 6-21.9 10.9-32.4 14.1c-10.4 3.3-20.2 4.7-28.4 4.9c-8.3 0.1-14.9-1-19.4-2.1c-2.2-0.6-3.9-1.1-5-1.5q-0.8-0.3-1.3-0.5q-0.5-0.1-0.5-0.2z" />
				</g>
			</g>
			<g id="&lt;Group&gt;">
				<path id="&lt;Path&gt;" class="s13" d="m704.5 672l59 107.8l86.4-48.4l42 13.9q-106 114.9-123.2 120.8c-17.2 5.9-49.8 6.9-68.4-16.4q-17-21.2-66.3-132.6z" />
			</g>
			<g id="&lt;Group&gt;">
				<g id="&lt;Group&gt;">
					<g id="&lt;Group&gt;">
						<g id="&lt;Group&gt;">
							<g id="&lt;Group&gt;">
								<g id="&lt;Group&gt;">
									<g id="&lt;Group&gt;">
										<g id="&lt;Group&gt;">
											<g id="&lt;Group&gt;">
												<g id="&lt;Group&gt;">
													<g id="&lt;Group&gt;">
														<path id="&lt;Path&gt;" class="s10" d="m948.6 603.2l-90.8 140.7l-45.5 1.4l-6.6-3.7l85.4-131.2c2-3 5.2-5.1 8.8-5.6l41.1-5.7c2.4-0.3 4.8 0.6 6.3 2.5z" />
													</g>
												</g>
											</g>
										</g>
									</g>
								</g>
							</g>
						</g>
					</g>
				</g>
				<g id="&lt;Group&gt;">
					<g id="&lt;Group&gt;">
						<g id="&lt;Group&gt;">
							<g id="&lt;Group&gt;">
								<g id="&lt;Group&gt;">
									<g id="&lt;Group&gt;">
										<g id="&lt;Group&gt;">
											<g id="&lt;Group&gt;">
												<g id="&lt;Group&gt;">
													<g id="&lt;Group&gt;">
														<path id="&lt;Path&gt;" class="s3" d="m918.5 615.2c1.1-1.2 2.6-1.5 3.5-0.7c0.8 0.7 0.7 2.3-0.3 3.5c-1 1.1-2.6 1.5-3.4 0.7c-0.9-0.8-0.8-2.4 0.2-3.5z" />
													</g>
												</g>
											</g>
										</g>
									</g>
								</g>
							</g>
						</g>
					</g>
				</g>
				<g id="&lt;Group&gt;">
					<g id="&lt;Group&gt;">
						<g id="&lt;Group&gt;">
							<g id="&lt;Group&gt;">
								<g id="&lt;Group&gt;">
									<g id="&lt;Group&gt;">
										<g id="&lt;Group&gt;">
											<g id="&lt;Group&gt;">
												<g id="&lt;Group&gt;">
													<g id="&lt;Group&gt;">
														<g id="&lt;Group&gt;">
															<path id="&lt;Path&gt;" class="s2" d="m948.6 603.2c0.1 0.2-2.8 0.8-7.9 1.6c-5.6 0.9-12.9 2-21.8 3.4q-7 1-15 2.2c-2.6 0.2-4.9 1.6-6.4 3.7q-2.4 3.7-4.8 7.6c-6.8 10.3-14.1 21.7-21.8 33.6c-15.6 23.8-29.7 45.3-40.1 60.7c-5 7.5-9.2 13.6-12.4 18.3c-2.9 4.3-4.6 6.6-4.8 6.5c-0.1-0.1 1.3-2.6 4-7c3-4.8 7-11.1 11.7-18.7c10-15.7 24-37.4 39.5-61.2c7.8-11.8 15.2-23.1 21.9-33.5q2.6-3.8 5-7.5c1.8-2.7 5-4.3 7.8-4.5q8.1-1 15.2-1.9c8.9-1.1 16.3-2 21.9-2.6c5.1-0.6 8-0.8 8-0.7z" />
														</g>
													</g>
												</g>
											</g>
										</g>
									</g>
								</g>
							</g>
						</g>
					</g>
				</g>
			</g>
			<g id="&lt;Group&gt;">
				<g id="&lt;Group&gt;">
					<g id="&lt;Group&gt;">
						<g id="&lt;Group&gt;">
							<g id="&lt;Group&gt;">
								<g id="&lt;Group&gt;">
									<g id="&lt;Group&gt;">
										<g id="&lt;Group&gt;">
											<g id="&lt;Group&gt;">
												<g id="&lt;Group&gt;">
													<g id="&lt;Group&gt;">
														<path id="&lt;Path&gt;" class="s13" d="m907.4 663c0.5 1.3-5.3 45.1-4.2 49.8c1.1 4.7 2.2 16.7 0.9 22.8q-1.4 6.2-12.4 4.2q0.9 5.4-0.4 8.8q-1.3 3.4-8.3 5.3q-0.4 5.5-1.6 9.4q-1.3 3.8-14.5 4.9l-24.1-11.7q-19.9-18.1-22.1-23.1q-2.2-5 3.7-5.3l19.1 11.6l16.1 1.3q-21.6-20.5-24.8-27.1q-3.1-6.5 7.6-9.3l32.1 15.5l-11.2-16.1q-15.1-2.7-19-5.3q-3.8-2.7 1.4-7.5l24-3.1l19.2 10.2q6.5-28.8 8.5-38.8q2-10 5.7-9.4c6.8-2.9 3.9 11.6 4.3 12.9z" />
													</g>
												</g>
											</g>
										</g>
									</g>
								</g>
							</g>
						</g>
					</g>
				</g>
				<g id="&lt;Group&gt;">
					<g id="&lt;Group&gt;">
						<g id="&lt;Group&gt;">
							<g id="&lt;Group&gt;">
								<g id="&lt;Group&gt;">
									<g id="&lt;Group&gt;">
										<g id="&lt;Group&gt;">
											<g id="&lt;Group&gt;">
												<g id="&lt;Group&gt;">
													<g id="&lt;Group&gt;">
														<g id="&lt;Group&gt;">
															<path id="&lt;Path&gt;" class="s14" d="m882.2 763.3c0.1 0.3-2.2 1.3-6.3 2c-4 0.6-9.8 0.7-15.9-0.8c-6.1-1.4-11.2-4.1-14.5-6.5c-3.3-2.4-4.9-4.3-4.7-4.6c0.4-0.6 8.1 6.1 19.8 8.7c11.7 2.9 21.5 0.5 21.6 1.2z" />
														</g>
													</g>
												</g>
											</g>
										</g>
									</g>
								</g>
							</g>
						</g>
					</g>
				</g>
				<g id="&lt;Group&gt;">
					<g id="&lt;Group&gt;">
						<g id="&lt;Group&gt;">
							<g id="&lt;Group&gt;">
								<g id="&lt;Group&gt;">
									<g id="&lt;Group&gt;">
										<g id="&lt;Group&gt;">
											<g id="&lt;Group&gt;">
												<g id="&lt;Group&gt;">
													<g id="&lt;Group&gt;">
														<g id="&lt;Group&gt;">
															<path id="&lt;Path&gt;" class="s14" d="m876.5 754.7c-0.4 0.5-4.6-1.7-9.2-5.5c-4.6-3.7-7.6-7.5-7.1-8c0.4-0.4 4.2 2.4 8.7 6.1c4.4 3.7 8 6.8 7.6 7.4z" />
														</g>
													</g>
												</g>
											</g>
										</g>
									</g>
								</g>
							</g>
						</g>
					</g>
				</g>
				<g id="&lt;Group&gt;">
					<g id="&lt;Group&gt;">
						<g id="&lt;Group&gt;">
							<g id="&lt;Group&gt;">
								<g id="&lt;Group&gt;">
									<g id="&lt;Group&gt;">
										<g id="&lt;Group&gt;">
											<g id="&lt;Group&gt;">
												<g id="&lt;Group&gt;">
													<g id="&lt;Group&gt;">
														<g id="&lt;Group&gt;">
															<path id="&lt;Path&gt;" class="s14" d="m889.2 733.8c-0.4 0.6-4.6-1.6-8.9-5.6c-4.3-3.9-6.8-8-6.3-8.4c0.6-0.4 3.9 2.8 8 6.6c4.1 3.8 7.6 6.9 7.2 7.4z" />
														</g>
													</g>
												</g>
											</g>
										</g>
									</g>
								</g>
							</g>
						</g>
					</g>
				</g>
				<g id="&lt;Group&gt;">
					<g id="&lt;Group&gt;">
						<g id="&lt;Group&gt;">
							<g id="&lt;Group&gt;">
								<g id="&lt;Group&gt;">
									<g id="&lt;Group&gt;">
										<g id="&lt;Group&gt;">
											<g id="&lt;Group&gt;">
												<g id="&lt;Group&gt;">
													<g id="&lt;Group&gt;">
														<g id="&lt;Group&gt;">
															<path id="&lt;Path&gt;" class="s14" d="m902.6 717.1c-0.7 0.2-3.1-4.3-6.9-9.2c-3.8-5-7.6-8.5-7.2-9.1c0.4-0.5 5.1 2.3 9.1 7.6c4.1 5.2 5.6 10.4 5 10.7z" />
														</g>
													</g>
												</g>
											</g>
										</g>
									</g>
								</g>
							</g>
						</g>
					</g>
				</g>
			</g>
			<g id="&lt;Group&gt;">
				<g id="&lt;Group&gt;">
					<g id="&lt;Group&gt;">
						<g id="&lt;Group&gt;">
							<path id="&lt;Path&gt;" class="s5" d="m658.2 720.8q-3.2 243.4-12.7 240.8q-9.6-2.5-159.3-41.5l-54-37.6l-10.4-161.7l-108.9-10.1l9.2-64c13-65.4 36.8-75.3 51.9-83.1q15.1-7.8 78.2-17.5q26.6 40.4 71.6 38.7q39.1-1.4 39.6-26.2l54.7 12.1c5.1 0.9 10 2.3 14.8 4.4c8.5 3.7 21.2 10.8 31.1 22.8q10.6 12.8 48.6 76.2q-16 21.8-54.4 46.7z" />
						</g>
					</g>
				</g>
			</g>
			<g id="&lt;Group&gt;">
				<path id="&lt;Path&gt;" class="s2" d="m421.1 647.5c0.3 0 0.9 19 1.4 42.6c0.4 23.5 0.6 42.6 0.3 42.6c-0.3 0.1-0.9-19-1.4-42.6c-0.4-23.5-0.6-42.6-0.3-42.6z" />
			</g>
			<g id="&lt;Group&gt;">
				<path id="&lt;Path&gt;" class="s2" d="m639.7 646.8q0.1 0 0.6 1q0.7 1.1 1.6 2.8c0.7 1.2 1.5 2.7 2.4 4.5c0.9 1.9 1.9 3.9 2.9 6.2c2.1 4.6 4.2 10.3 6.1 16.6c1.9 6.5 3.5 13.6 4.5 21.3c2.1 15.3 1.7 29.3 1.2 39.3c-0.4 5-0.7 9.1-1 11.9q-0.3 2-0.4 3.2q-0.2 1.1-0.2 1.1q-0.1 0 0-1.1q0.1-1.3 0.2-3.2c0.2-2.8 0.4-6.9 0.6-11.9c0.4-10.1 0.7-24-1.4-39.2c-1.1-7.6-2.6-14.7-4.4-21.1c-1.9-6.3-3.9-12-5.9-16.6c-0.9-2.3-1.9-4.4-2.7-6.2c-0.8-1.8-1.6-3.4-2.2-4.6q-0.9-1.8-1.5-2.9q-0.4-1-0.4-1.1z" />
			</g>
			<g id="&lt;Group&gt;">
				<path id="&lt;Path&gt;" class="s2" d="m577 561.6q0.2 2.5-0.6 6.9c-1 4.3-3.3 10.6-8.9 16.4c-5.5 5.9-14.1 10.6-24.4 12.9c-10.3 2.2-22.2 2.3-34.1-0.3c-11.9-2.5-22.6-7.3-31.6-12.5c-9.1-5.3-16.6-11.2-22.3-16.8c-5.7-5.5-9.7-10.5-12.3-14.1c-1.3-1.9-2.2-3.4-2.8-4.3q-0.9-1.5-0.9-1.6q0.1 0 1.1 1.5c0.7 0.9 1.6 2.4 2.9 4.1c2.7 3.5 6.7 8.5 12.5 13.9c5.7 5.4 13.2 11.2 22.2 16.4c9.1 5.2 19.7 9.9 31.5 12.3c11.7 2.7 23.4 2.6 33.5 0.4c10.2-2.1 18.8-6.7 24.2-12.4c5.6-5.6 7.9-11.8 9-16c0.5-2.2 0.7-3.9 0.8-5c0.1-1.2 0.2-1.8 0.2-1.8z" />
			</g>
			<g id="&lt;Group&gt;">
				<g id="&lt;Group&gt;">
					<path id="&lt;Path&gt;" class="s13" d="m645.5 961.6q-248 5.3-262.8-6.4c-14.9-11.6-40.2-70.1-45.2-112.9q-3.5-29.8-6.9-130l91.2 8.5l9.4 146.5l205.1 44.6z" />
				</g>
			</g>
			<g id="&lt;Group&gt;">
				<g id="&lt;Group&gt;">
					<path id="&lt;Path&gt;" class="s13" d="m752.6 938.5c-1.4 2.8-4.4 4.7-7.6 4.4q-1-0.1-2-0.4q-4.5-1.4-4.1-10.7l-21.7-3.5q-28.3 18.2-38.3 30.3q-10.1 12-35.7 2.3l-8.9-46.3l40-36.2q-2.5 2.1 0.3-4.6q2.7-6.8 15.3-4.2q2-3.4 10.2-4.6l35 4.1c7.3 0.8 13.7 4.9 17.6 11l14.8 23.5q7.9 16.9 6.6 20.8q-1.9 6-8.2 4.6q-1.7 11.2-4.6 11.5q-2.9 0.4-8.7-2z" />
				</g>
			</g>
			<g id="&lt;Group&gt;">
				<g id="&lt;Group&gt;">
					<g id="&lt;Group&gt;">
						<path id="&lt;Path&gt;" class="s14" d="m690.2 903.9c7.6-0.1 18.2 1 29.3 4.8c5.5 1.9 10.6 4.2 15 6.6c2.3 1.2 4.3 2.5 6.2 3.8c1.8 1.3 3.6 2.8 4.3 4.9c0.8 2 0.2 4.2-0.8 5.5c-1 1.3-2.3 2-3.4 2.3c-2.3 0.6-3.4-0.3-3.3-0.4c0-0.2 1.2 0.3 3-0.4c0.9-0.4 1.9-1.1 2.7-2.3c0.7-1.1 1-2.6 0.4-4.1c-1.4-3.1-5.8-5.1-10.1-7.5c-4.3-2.3-9.3-4.5-14.7-6.3c-10.8-3.7-21.2-5-28.6-5.3c-7.5-0.4-12.2 0.1-12.2-0.3c-0.1-0.2 4.6-1.2 12.2-1.3z" />
					</g>
				</g>
			</g>
			<g id="&lt;Group&gt;">
				<g id="&lt;Group&gt;">
					<g id="&lt;Group&gt;">
						<path id="&lt;Path&gt;" class="s14" d="m684.8 926.4c5.8-0.4 13.8-0.5 22.7 0c8.8 0.5 16.8 1.6 22.5 2.6c5.7 1 9.2 1.9 9.1 2.2c-0.1 0.6-14.2-1.6-31.7-2.5c-17.6-1.1-31.8-0.5-31.9-1.1c0-0.3 3.5-0.8 9.3-1.2z" />
					</g>
				</g>
			</g>
			<g id="&lt;Group&gt;">
				<g id="&lt;Group&gt;">
					<g id="&lt;Group&gt;">
						<path id="&lt;Path&gt;" class="s14" d="m751.3 923.7c-0.5-4.2-1.2-9.3-4.5-13.7c-3.3-4.7-7.4-9.2-12.8-12.8c-5.3-3.6-10.8-6.7-16.1-8.4c-5.3-1.7-10.4-2.3-14.6-2.7c-8.6-0.6-13.9-0.8-13.9-1.1c0-0.2 1.3-0.3 3.7-0.4c2.5-0.1 5.9-0.2 10.3 0c4.3 0.2 9.5 0.6 15.1 2.3c5.7 1.7 11.2 4.8 16.8 8.5c5.6 3.7 10 8.6 13.2 13.4c1.6 2.4 2.8 5.1 3.4 7.7c0.6 2.5 0.8 4.9 1 7.1c0.3 4.3 0.1 7.8 0 10.2c-0.2 2.5-0.4 3.8-0.5 3.8c-0.5 0-0.3-5.4-1.1-13.9z" />
					</g>
				</g>
			</g>
			<g id="&lt;Group&gt;">
				<g id="&lt;Group&gt;">
					<g id="&lt;Group&gt;">
						<path id="&lt;Path&gt;" class="s14" d="m715.5 873.8c4.3 0.4 9.4 0.8 14.9 2.4c2.7 0.8 5.7 1.9 8.2 3.8c2.6 2 4.8 4.4 6.9 6.9c8 10.2 14.7 20.1 17.4 28.4c1.4 4.1 2 7.6 2.1 10c0.1 2.4-0.1 3.7-0.3 3.7c-0.4 0-0.1-5.4-3.3-13.1c-2.9-7.9-9.7-17.4-17.7-27.6c-7.3-11.1-20.2-11.7-28.3-12.9c-8.4-1-13.7-1.1-13.6-1.5c-0.1-0.2 5.2-0.7 13.7-0.1z" />
					</g>
				</g>
			</g>
			<g id="&lt;Group&gt;">
				<g id="&lt;Group&gt;">
					<g id="&lt;Group&gt;">
						<path id="&lt;Path&gt;" class="s14" d="m688.3 949.2c1.3-1.2 3.2-2.9 5.7-5c5-4.3 12.6-10.2 22.8-16.6l0.2-0.1h0.3c6.5 1.1 13.8 2.2 21.7 3.4l0.8 0.2v0.8c0 3 0.3 6.9 2.4 9c0.5 0.5 1.1 0.7 1.9 0.9c0.8 0.2 1.6 0.2 2.4 0.1c1.6-0.2 3.1-1.1 4.2-2.4q0.4-0.4 0.8-1l0.1-0.3l0.1-0.1v-0.1c-0.3 0.1 2.5-0.9 1.3-0.4h0.1l0.6 0.2q1.3 0.5 2.7 1q1.3 0.4 2.7 0.6q0.7 0.1 1.3 0.2c0.5 0 0.9-0.1 0.9-0.1c1-0.8 1.8-2.9 2.3-4.7c0.5-1.9 1-3.9 1.3-5.9l0.2-1.1l1.1 0.2c2.1 0.4 4.6-0.2 5.9-2c0.6-0.9 1.2-2 1-3c0-1.1-0.3-2.4-0.7-3.7c-1.4-5-3.6-10.2-5.9-15.2l0.1 0.1c-2.5-4-5.2-8.2-7.9-12.5q-2.5-4-5-8c-1.7-2.6-3.2-5.3-5.2-7.3c-2.1-2.1-4.5-3.7-7.1-4.7c-2.7-1.2-5.4-1.5-8.4-1.8c-11.6-1.3-22.7-2.7-33.1-3.9h0.3c-1.8 0.3-3.7 0.8-5.4 1.4c-1.7 0.6-3.3 1.5-4.1 2.7l-0.4 0.7l-0.8-0.4c-3.1-1.3-6.9-1.3-9.5 0.4c-2.7 1.7-4.2 4.9-4.9 7.8l-0.1 0.3l-0.2 0.1c-11.7 10.1-21.2 18.4-28 24.2q-4.8 4.1-7.7 6.6c-1.8 1.4-2.8 2.2-2.8 2.1c-0.1-0.1 0.8-0.9 2.4-2.5q2.8-2.6 7.5-6.8c6.7-6.1 16-14.5 27.5-24.8l-0.2 0.4c0.8-3.2 2.3-6.7 5.5-8.9c3.3-2.1 7.6-2.1 11.3-0.6l-1.2 0.4c1.3-2 3.2-2.8 5-3.5c1.9-0.7 3.8-1.2 5.8-1.5l0.1-0.1h0.2c10.3 1.2 21.4 2.5 33 3.8c2.9 0.3 6.1 0.6 9 1.8c2.9 1.2 5.6 3 7.9 5.3c2.3 2.2 3.8 5.1 5.5 7.6q2.4 4 5 8c2.7 4.3 5.4 8.5 7.9 12.5v0.1h0.1c2.3 5.2 4.4 10.3 5.9 15.7c0.4 1.3 0.7 2.6 0.8 4.2c0.1 1.7-0.6 3.1-1.5 4.3c-1.9 2.6-5.3 3.3-8.1 2.8l1.3-0.9c-0.4 2.1-0.8 4.1-1.4 6.2q-0.4 1.5-1.1 2.9c-0.4 1-0.9 2-2.1 2.9c-0.9 0.4-1.5 0.4-2 0.4q-0.9 0-1.6-0.2q-1.6-0.3-3-0.7q-1.4-0.5-2.8-1l-0.7-0.3h-0.1c-1.1 0.4 1.6-0.6 1.3-0.5v0.1l-0.1 0.2l-0.2 0.3q-0.5 0.7-1 1.3c-1.4 1.6-3.3 2.7-5.4 3c-1 0.2-2.1 0.1-3-0.2c-1-0.1-2.1-0.5-2.9-1.3c-1.6-1.5-2.1-3.4-2.5-5.2c-0.3-1.8-0.4-3.5-0.4-5.3l0.7 0.9c-7.9-1.3-15.2-2.6-21.7-3.7l0.5-0.1c-10.1 6.2-17.8 11.9-23 15.9q-3.6 2.9-5.9 4.7c-1.3 1.1-2 1.6-2.1 1.6c0-0.1 0.6-0.7 1.8-1.9z" />
					</g>
				</g>
			</g>
		</g>
		<g id="&lt;Group&gt;">
			<g id="&lt;Group&gt;">
				<g id="&lt;Group&gt;">
					<g id="&lt;Group&gt;">
						<path id="&lt;Path&gt;" class="s1" d="m1067.1 755.8l-30.4 207.7h-281.6h-25.9h-136.7c-4.5 0-8.1-3.6-8.1-8.1c0-4.5 3.6-8.1 8.1-8.1h139.1l29.5-196.8c1.3-8.7 9.7-12.9 18.5-12.9l270-2.2c10.8 0 19.1 9.7 17.5 20.4z" />
					</g>
				</g>
				<g id="&lt;Group&gt;">
					<g id="&lt;Group&gt;">
						<g id="&lt;Group&gt;">
							<path id="&lt;Path&gt;" class="s2" d="m1049.6 735.4q1.5-0.2 4.2 0.4c2.7 0.6 7 2.3 10.4 6.8c1.6 2.3 2.9 5.2 3.3 8.7c0.4 3.4-0.6 7.1-1 11.1c-1.1 7.9-2.4 17.1-3.9 27.4c-5.9 41.2-14.5 100.7-25 173.8l-0.1 0.7h-0.8c-114.9 0.1-266 0.2-430.9 0.3q-5.8 0-11.6 0c-1.8 0.1-4.3 0-6.2-1.2c-1.9-1-3.4-2.8-4.1-4.9c-1.6-4.1 0.3-9.1 4.2-11.2c1.8-1.1 4.3-1.2 6.1-1.1h5.7q22.8 0 45.1 0c29.7 0 58.7 0 86.6 0l-1 0.9c10.6-70.5 20.5-136.2 29.4-195.2c0.3-3.7 2-7.8 5-10.3c2.9-2.6 6.6-4 10.3-4.5c3.8-0.6 7.3-0.3 10.9-0.4q5.3-0.1 10.6-0.1q21-0.1 40.7-0.3c26.1-0.1 50.3-0.3 72.2-0.4c43.8-0.2 78.8-0.4 102.9-0.6c11.9 0 21.1 0 27.5 0q4.6 0 7.1 0q1.6 0.1 2.4 0.1q-0.8 0.1-2.4 0.1q-2.5 0.1-7.1 0.2c-6.3 0.1-15.6 0.2-27.5 0.4c-24.1 0.2-59.1 0.6-102.9 1.1c-21.9 0.2-46.1 0.5-72.2 0.7q-19.7 0.2-40.7 0.4q-5.3 0.1-10.6 0.1c-3.6 0.1-7.2-0.1-10.6 0.4c-3.5 0.5-6.9 1.8-9.4 4.2c-2.7 2.3-4.1 5.5-4.4 9.2c-8.8 59-18.6 124.7-29.2 195.2l-0.1 0.9h-0.9c-27.9 0-56.9 0-86.6 0.1q-22.3 0-45.1 0h-5.7c-2-0.1-3.6 0-5.1 0.8c-2.9 1.6-4.4 5.5-3.2 8.6c0.6 1.6 1.7 2.9 3.2 3.7c1.5 0.9 3 1 5.1 0.9q5.8 0 11.6 0c164.9 0.1 316 0.2 430.9 0.3l-0.8 0.7c10.9-73.1 19.7-132.5 25.8-173.8c1.5-10.2 2.9-19.4 4.1-27.3c0.5-4 1.5-7.7 1.1-11c-0.3-3.3-1.5-6.2-3.1-8.4c-3.2-4.4-7.4-6.2-10-6.9c-2.7-0.6-4.2-0.5-4.2-0.6z" />
						</g>
					</g>
				</g>
			</g>
			<g id="&lt;Group&gt;">
				<g id="&lt;Group&gt;">
					<path id="&lt;Path&gt;" class="s3" d="m903.1 830c9.4 0 16.9 7.6 16.9 16.9c0 9.4-7.5 17-16.9 17c-9.3 0-16.9-7.6-16.9-17c0-9.3 7.6-16.9 16.9-16.9z" />
				</g>
			</g>
			<g id="&lt;Group&gt;">
				<g id="&lt;Group&gt;">
					<g id="&lt;Group&gt;">
						<path id="&lt;Path&gt;" class="s2" d="m760.4 849.5c10.2-61.9 18.8-112 19.2-111.9c0.3 0.1-7.6 50.3-17.9 112.2c-10.2 61.8-18.8 111.9-19.2 111.9c-0.3-0.1 7.6-50.3 17.9-112.2z" />
					</g>
				</g>
			</g>
		</g>
	</g>
</svg>